HIERARCHY
ROOT Hips
{
	OFFSET -0.001795 -0.223333 0.028219
	CHANNELS 6 Xposition Yposition Zposition Zrotation Yrotation Xrotation 
	JOINT LeftUpLeg
	{
		OFFSET 0.069520 -0.091406 -0.006815
		CHANNELS 3 Zrotation Yrotation Xrotation
		JOINT LeftLeg
		{
			OFFSET 0.034277 -0.375199 -0.004496
			CHANNELS 3 Zrotation Yrotation Xrotation
			JOINT LeftFoot
			{
				OFFSET -0.013596 -0.397961 -0.043693
				CHANNELS 3 Zrotation Yrotation Xrotation
				JOINT LeftToe
				{
					OFFSET 0.026358 -0.055791 0.119288
					CHANNELS 3 Zrotation Yrotation Xrotation
					End Site
					{
						OFFSET 0.000000 0.000000 0.000000
					}
				}
			}
		}
	}
	JOINT RightUpLeg
	{
		OFFSET -0.067670 -0.090522 -0.004320
		CHANNELS 3 Zrotation Yrotation Xrotation
		JOINT RightLeg
		{
			OFFSET -0.038290 -0.382569 -0.008850
			CHANNELS 3 Zrotation Yrotation Xrotation
			JOINT RightFoot
			{
				OFFSET 0.015774 -0.398415 -0.042312
				CHANNELS 3 Zrotation Yrotation Xrotation
				JOINT RightToe
				{
					OFFSET -0.025372 -0.048144 0.123348
					CHANNELS 3 Zrotation Yrotation Xrotation
					End Site
					{
						OFFSET 0.000000 0.000000 0.000000
					}
				}
			}
		}
	}
	JOINT Spine
	{
		OFFSET -0.002533 0.108963 -0.026696
		CHANNELS 3 Zrotation Yrotation Xrotation
		JOINT Spine1
		{
			OFFSET 0.005487 0.135180 0.001092
			CHANNELS 3 Zrotation Yrotation Xrotation
			JOINT Spine2
			{
				OFFSET 0.001457 0.052922 0.025425
				CHANNELS 3 Zrotation Yrotation Xrotation
				JOINT Neck
				{
					OFFSET -0.002778 0.213870 -0.042857
					CHANNELS 3 Zrotation Yrotation Xrotation
					JOINT Head
					{
						OFFSET 0.005152 0.064970 0.051349
						CHANNELS 3 Zrotation Yrotation Xrotation
						End Site
						{
							OFFSET 0.000000 0.000000 0.000000
						}
					}
				}
				JOINT LeftShoulder
				{
					OFFSET 0.078845 0.121749 -0.034090
					CHANNELS 3 Zrotation Yrotation Xrotation
					JOINT LeftArm
					{
						OFFSET 0.090977 0.030469 -0.008868
						CHANNELS 3 Zrotation Yrotation Xrotation
						JOINT LeftForeArm
						{
							OFFSET 0.259612 -0.012772 -0.027456
							CHANNELS 3 Zrotation Yrotation Xrotation
							JOINT LeftHand
							{
								OFFSET 0.249234 0.008986 -0.001171
								CHANNELS 3 Zrotation Yrotation Xrotation
								End Site
								{
									OFFSET 0.000000 0.000000 0.000000
								}
							}
						}
					}
				}
				JOINT RightShoulder
				{
					OFFSET -0.081759 0.118833 -0.038615
					CHANNELS 3 Zrotation Yrotation Xrotation
					JOINT RightArm
					{
						OFFSET -0.096012 0.032551 -0.009143
						CHANNELS 3 Zrotation Yrotation Xrotation
						JOINT RightForeArm
						{
							OFFSET -0.253742 -0.013329 -0.021401
							CHANNELS 3 Zrotation Yrotation Xrotation
							JOINT RightHand
							{
								OFFSET -0.255298 0.007772 -0.005559
								CHANNELS 3 Zrotation Yrotation Xrotation
								End Site
								{
									OFFSET 0.000000 0.000000 0.000000
								}
							}
						}
					}
				}
			}
		}
	}
}
MOTION
Frames: 15
Frame Time: 0.050000
0.524846 0.934476 0.774854 1.319918 1.465698 1.413295 -0.062611 -1.326060 -14.198580 -10.634448 1.692836 9.844562 5.215453 12.812501 9.830075 0.000000 0.000000 0.000000 1.155337 1.321707 -12.348845 5.519413 -0.898939 22.114589 -10.307261 -23.965611 9.018728 0.000000 0.000000 0.000000 1.461005 -0.496374 8.810303 6.419166 -3.525406 4.227674 -3.529862 0.655419 2.843492 3.140341 0.137970 -22.305569 0.000000 0.000000 0.000000 -32.658343 -12.039485 3.958777 -46.318568 -4.115509 -3.460168 11.740329 -20.089851 -1.352750 0.000000 0.000000 0.000000 24.924268 15.171998 7.667622 43.518391 13.919612 0.498945 -14.441195 20.565768 -1.566173 0.000000 0.000000 0.000000 
0.528972 0.935817 0.762656 1.522834 2.783259 1.117227 -0.015742 -1.308025 -13.908954 -10.290369 1.684302 12.117554 7.814712 16.770625 6.529211 0.000000 0.000000 0.000000 0.318355 1.198106 -11.911111 6.176687 -1.162939 20.605941 -10.741078 -24.666006 9.450149 0.000000 0.000000 0.000000 1.674313 -0.511806 8.652526 6.891454 -3.790708 4.043182 -3.477467 0.515003 2.891211 2.952366 0.167888 -21.086005 0.000000 0.000000 0.000000 -31.326578 -11.255916 3.199619 -47.088737 -3.756304 -3.615947 10.905820 -21.085776 -1.294990 0.000000 0.000000 0.000000 25.006041 14.539685 7.450912 42.249843 13.351159 0.197429 -14.719838 19.374473 -1.480210 0.000000 0.000000 0.000000 
0.534187 0.936696 0.752023 1.874135 3.380742 1.229224 -0.068253 -1.160390 -12.316166 -8.713627 1.429155 15.049899 10.238187 20.755499 3.785397 0.000000 0.000000 0.000000 -0.655241 1.094887 -11.733437 6.564560 -1.265024 18.982943 -10.869357 -24.886852 9.418004 0.000000 0.000000 0.000000 1.555377 -0.458138 7.864194 6.688270 -3.617209 3.376896 -2.817181 -0.049074 3.397447 2.738457 0.222728 -21.023162 0.000000 0.000000 0.000000 -30.743089 -10.123013 2.656906 -47.120096 -3.426603 -3.857954 10.599493 -21.782117 -1.257759 0.000000 0.000000 0.000000 24.893759 13.870618 6.878027 41.615231 12.623577 -0.055258 -13.734963 17.122518 -1.154587 0.000000 0.000000 0.000000 
0.540246 0.937046 0.742426 2.123960 3.939906 1.462576 -0.265428 -1.006388 -10.589848 -5.384266 0.624568 18.122747 10.096727 20.456425 3.156692 0.000000 0.000000 0.000000 -1.469926 1.019512 -11.718175 6.774786 -1.307995 17.547631 -11.028993 -25.161682 9.423346 0.000000 0.000000 0.000000 0.871898 -0.347953 6.783776 7.648840 -4.164457 3.615527 -3.210810 0.195679 3.351146 3.270309 -0.063002 -20.376288 0.000000 0.000000 0.000000 -30.007839 -9.673064 2.103628 -46.777519 -2.948792 -3.923146 10.680789 -22.963892 -1.382849 0.000000 0.000000 0.000000 25.430293 12.347003 6.189115 40.158075 11.771601 -0.429233 -13.442125 15.494181 -0.963814 0.000000 0.000000 0.000000 
0.547258 0.936756 0.733412 1.654918 4.400658 1.271856 0.083357 -0.767443 -8.369970 -1.551663 -0.419180 18.435536 6.880460 14.514881 2.356115 0.000000 0.000000 0.000000 -1.720018 0.976259 -11.502494 7.250377 -1.425803 16.522374 -11.145733 -25.319688 9.687421 0.000000 0.000000 0.000000 0.998479 -0.346860 6.569180 7.838413 -4.216378 3.147753 -3.178524 0.099402 3.734070 5.480350 -1.326344 -19.971178 0.000000 0.000000 0.000000 -29.379102 -9.607890 2.039576 -47.480393 -2.795569 -4.072677 13.995994 -23.449044 -2.109429 0.000000 0.000000 0.000000 24.767520 10.563862 5.082035 40.808964 11.082280 -0.670855 -13.782060 13.209627 -0.791889 0.000000 0.000000 0.000000 
0.555690 0.935257 0.724138 0.726593 4.301930 1.152383 0.551470 -0.564528 -6.407111 0.324674 -0.739594 15.229638 5.119044 11.150888 2.190489 0.000000 0.000000 0.000000 -1.598965 1.005947 -11.728896 7.743882 -1.530969 15.982496 -11.056831 -25.147985 9.753772 0.000000 0.000000 0.000000 0.319016 -0.282962 6.199938 8.015434 -4.347076 3.417575 -2.515924 0.022976 3.995621 7.233763 -2.352209 -19.947751 0.000000 0.000000 0.000000 -28.599516 -8.896376 1.736109 -47.096991 -2.599504 -4.188127 14.633649 -23.563401 -2.235017 0.000000 0.000000 0.000000 24.864272 9.098672 4.077177 40.136855 10.961685 -0.701460 -13.652473 11.596353 -0.646913 0.000000 0.000000 0.000000 
0.566265 0.933515 0.714030 -0.088404 3.746317 1.736682 1.317905 -0.356650 -4.166604 -0.135578 -0.311266 8.539596 4.723621 10.300684 1.862203 0.000000 0.000000 0.000000 -1.664755 1.076146 -12.577252 8.057756 -1.540494 15.072490 -10.780699 -24.678498 9.658643 0.000000 0.000000 0.000000 -0.416676 -0.217630 5.798809 8.837603 -4.756273 3.374740 -2.473102 -0.914776 4.114709 8.194484 -2.917548 -20.622075 0.000000 0.000000 0.000000 -27.529071 -8.011898 1.716671 -47.277596 -2.682069 -4.346540 14.935055 -23.771706 -2.239848 0.000000 0.000000 0.000000 24.980871 8.102679 3.034545 40.989824 9.803054 -0.938670 -15.751303 12.704732 -0.948010 0.000000 0.000000 0.000000 
0.578968 0.931082 0.702638 -0.474120 1.882586 2.562689 1.903171 -0.245103 -2.772361 -2.325318 0.189345 3.581421 5.373627 11.450977 1.302757 0.000000 0.000000 0.000000 -1.716689 1.287667 -14.914930 7.233579 -1.267679 16.134885 -10.061391 -23.477067 9.326286 0.000000 0.000000 0.000000 -1.565811 -0.132720 5.664985 8.565884 -4.438349 2.490326 -1.654114 -2.355048 5.440644 9.240474 -3.535370 -22.359533 0.000000 0.000000 0.000000 -26.797043 -7.447799 2.446942 -47.936456 -3.338143 -4.576105 16.430694 -23.495371 -2.322717 0.000000 0.000000 0.000000 24.973195 7.420719 1.753748 42.498668 10.394574 -0.580277 -18.127705 13.741915 -1.372889 0.000000 0.000000 0.000000 
0.592261 0.930802 0.690701 -0.953250 -0.522971 2.860508 2.226609 -0.196929 -2.180638 -4.033275 0.444706 0.975436 6.205625 13.204281 1.733798 0.000000 0.000000 0.000000 -1.601076 1.467080 -16.329170 6.293526 -0.905743 16.384348 -8.952246 -21.556568 9.598438 0.000000 0.000000 0.000000 -2.650896 -0.057782 6.015484 8.481031 -4.324056 2.382511 -1.449009 -3.658767 5.314183 10.565837 -4.295330 -23.597640 0.000000 0.000000 0.000000 -26.586966 -6.787350 3.008865 -47.430863 -3.611846 -4.698336 15.281805 -23.050223 -1.896648 0.000000 0.000000 0.000000 25.881252 7.165531 0.567965 43.491590 10.752665 -0.121816 -19.610847 16.478399 -2.064236 0.000000 0.000000 0.000000 
0.604406 0.930806 0.679804 -1.317940 -3.798784 2.441154 2.510844 -0.089568 -0.875597 -5.814103 0.665161 -1.309266 7.339638 15.559434 2.616282 0.000000 0.000000 0.000000 -1.776027 1.558735 -16.812820 5.950152 -0.657867 16.303599 -7.373525 -18.870162 9.687467 0.000000 0.000000 0.000000 -3.950978 0.043852 6.693341 8.444991 -4.189139 1.914013 -1.294610 -5.585635 6.367100 10.989512 -4.762125 -24.755407 0.000000 0.000000 0.000000 -26.670458 -6.726263 4.406323 -47.216752 -5.520711 -4.461136 14.426501 -21.635555 -1.427024 0.000000 0.000000 0.000000 27.310283 8.420775 -0.229419 44.794142 11.430590 0.548288 -21.128220 18.457543 -2.833156 0.000000 0.000000 0.000000 
0.614247 0.932892 0.671332 -2.177010 -6.742495 1.874510 3.182183 0.019493 0.415942 -6.876300 0.790154 -2.997272 8.366613 17.593808 3.987136 0.000000 0.000000 0.000000 -0.792138 1.685026 -16.474171 4.906502 -0.292221 15.489128 -5.811819 -16.326474 10.498640 0.000000 0.000000 0.000000 -4.904629 0.142875 7.940574 8.887904 -4.356137 1.973784 -0.744446 -7.168619 6.098545 11.420383 -5.129969 -25.683056 0.000000 0.000000 0.000000 -27.682183 -5.867730 5.118525 -45.372320 -7.241733 -4.092999 12.109027 -21.883350 -0.933113 0.000000 0.000000 0.000000 26.771825 7.728067 -1.900932 47.188352 11.649547 1.054809 -18.809539 21.636158 -3.224854 0.000000 0.000000 0.000000 
0.621524 0.934721 0.665673 -3.158578 -10.798729 1.296142 3.427289 0.183137 2.196601 -6.793684 0.811706 -4.852248 9.990243 20.580665 5.618884 0.000000 0.000000 0.000000 -0.510877 1.682812 -15.709355 5.751790 -0.336703 14.227163 -3.687751 -12.972143 11.147100 0.000000 0.000000 0.000000 -5.664726 0.246741 8.196879 8.589949 -4.073514 1.262921 0.483430 -9.309696 7.203550 10.816717 -5.265564 -26.427219 0.000000 0.000000 0.000000 -28.438754 -5.317368 6.671599 -44.251166 -9.586102 -3.890014 8.966720 -22.117341 -0.273355 0.000000 0.000000 0.000000 25.460230 8.114959 -3.164025 50.666072 10.756135 1.008224 -17.080546 24.747918 -3.783992 0.000000 0.000000 0.000000 
0.626628 0.936771 0.662545 -4.087841 -14.227068 1.221883 3.441056 0.303506 3.278800 -6.089892 0.780313 -6.129220 11.515659 23.157396 7.301259 0.000000 0.000000 0.000000 -0.227055 1.727166 -15.520054 6.692445 -0.394776 13.544089 -1.851867 -10.341288 12.145926 0.000000 0.000000 0.000000 -5.646172 0.256591 7.539770 9.044973 -4.199898 1.134780 0.334365 -11.643665 8.144377 10.418720 -5.712382 -25.450371 0.000000 0.000000 0.000000 -28.848408 -5.635540 8.689118 -44.275080 -10.962767 -4.015807 7.646770 -25.284262 0.093896 0.000000 0.000000 0.000000 24.282207 8.377353 -4.282210 53.999894 8.099774 -0.036516 -14.744962 28.348476 -4.260050 0.000000 0.000000 0.000000 
0.629797 0.936740 0.661550 -4.412318 -19.153587 1.462130 2.552572 0.440736 4.176461 -5.098139 0.752358 -7.358206 13.935667 27.073279 9.275892 0.000000 0.000000 0.000000 0.391755 1.800496 -15.326392 6.221177 -0.166493 12.405006 0.494898 -6.653830 11.994743 0.000000 0.000000 0.000000 -4.925022 0.201332 6.444364 8.538978 -3.877661 1.772570 -0.127613 -13.457081 7.452517 10.406799 -6.285969 -23.453757 0.000000 0.000000 0.000000 -29.350390 -5.569388 10.404806 -45.226690 -13.072596 -3.675977 7.100635 -26.420996 0.307855 0.000000 0.000000 0.000000 25.042147 9.611190 -5.520705 55.185556 4.939960 -0.929056 -14.066988 28.807730 -4.614501 0.000000 0.000000 0.000000 
0.630957 0.936222 0.662149 -4.553142 -22.460099 1.332419 2.238320 0.574135 5.096169 -5.054981 0.798620 -8.050367 15.563673 29.609641 10.520541 0.000000 0.000000 0.000000 0.850520 1.657990 -14.059203 5.768483 -0.079455 10.404967 2.136425 -3.918650 11.736596 0.000000 0.000000 0.000000 -4.302859 0.135781 5.142554 8.363983 -3.753227 3.863965 -0.821918 -14.731735 5.608561 9.517462 -6.189488 -20.878413 0.000000 0.000000 0.000000 -29.685220 -6.474613 11.996932 -45.537719 -14.468013 -3.228610 7.568316 -27.831576 0.221627 0.000000 0.000000 0.000000 26.416322 9.449746 -7.149130 54.981836 1.443668 -1.876594 -13.910805 28.880587 -4.857010 0.000000 0.000000 0.000000 
